<svg width="1440" height="368" viewBox="0 0 1440 368" fill="none" xmlns="http://www.w3.org/2000/svg">
<path opacity="0.753943" d="M247.063 657.136C5.34718 467.615 -44.889 315.097 -28.0742 238.253C-11.2592 161.409 72.6032 160.235 186.573 175.742C300.543 191.25 444.615 223.439 563.16 252.43C681.704 281.421 774.716 307.214 852.004 303.188C929.292 299.162 990.849 265.318 1034.34 229.089C1077.83 192.859 1103.25 154.246 1151.65 114.699C1200.05 75.1514 1271.43 34.6712 1345.03 15.1243C1418.62 -4.42263 1494.43 -3.03614 1562.95 15.1647C1631.47 33.3657 1692.7 68.3812 1754.08 127.072C1815.47 185.762 1877.01 268.125 1904.6 378.747C1932.19 489.369 1925.83 628.243 1876.09 787.059C1826.35 945.874 1733.23 1124.62 1639.18 1213.38C1545.13 1302.15 1450.16 1300.92 1186.06 1187.05C921.967 1073.17 488.779 846.656 247.063 657.136Z" fill="url(#paint0_linear_3_40)"/>
<defs>
<linearGradient id="paint0_linear_3_40" x1="-173.484" y1="314.005" x2="873.802" y2="253.556" gradientUnits="userSpaceOnUse">
<stop stop-color="#FFE5BE" stop-opacity="0"/>
<stop offset="1" stop-color="#FFAB2B"/>
</linearGradient>
</defs>
</svg>
