<svg width="36" height="35" viewBox="0 0 36 35" fill="none" xmlns="http://www.w3.org/2000/svg">
<g id="adobe-xd 1" clip-path="url(#clip0_4_45)">
<path id="Vector" d="M1.5 1.49901H34.5V33.501H1.5V1.49901Z" fill="#2E001E"/>
<path id="Vector_2" d="M0 0.00369263V34.9965H36V0.00369263H0ZM1.5 1.49911H34.5V33.5011H1.5V1.49911Z" fill="#FF2BC2"/>
<path id="Vector_3" d="M26.1451 14.7036C25.9201 14.5989 25.635 14.554 25.275 14.554C23.385 14.554 22.125 16.0046 22.125 18.4122C22.125 21.1638 23.4151 22.2704 25.095 22.2704C25.455 22.2704 25.8451 22.2255 26.1301 22.1059V14.7036H26.1451ZM19.425 18.5318C19.425 15.0475 21.675 12.3258 25.365 12.3258C25.68 12.3258 25.8451 12.3258 26.1451 12.3558V8.46767C26.1451 8.37794 26.2201 8.31812 26.2951 8.31812H28.71C28.83 8.31812 28.8601 8.36299 28.8601 8.43776V22.1059C28.8601 22.5097 28.8601 23.0181 28.935 23.5714C28.935 23.6761 28.9351 23.691 28.8451 23.7359C27.5851 24.3341 26.265 24.6032 25.005 24.6032C21.75 24.6032 19.425 22.5994 19.425 18.5318ZM14.31 16.1093L18.51 24.2294C18.585 24.349 18.54 24.4687 18.42 24.4687H15.8101C15.6451 24.4687 15.5701 24.4238 15.495 24.2743C14.535 22.3003 13.56 20.2516 12.555 18.1281H12.525C11.625 20.1319 10.635 22.3153 9.67505 24.2892C9.60005 24.4088 9.52505 24.4537 9.40505 24.4537H6.91505C6.76505 24.4537 6.75005 24.3341 6.82505 24.2443L10.935 16.3635L6.96005 8.52748C6.87005 8.40785 6.96005 8.30317 7.06505 8.30317H9.64505C9.79505 8.30317 9.87005 8.33308 9.91505 8.46767C10.86 10.4566 11.82 12.4156 12.72 14.4194H12.75C13.62 12.4455 14.58 10.4566 15.495 8.49757C15.5701 8.37794 15.615 8.30317 15.765 8.30317H18.18C18.3 8.30317 18.345 8.39289 18.27 8.52748L14.31 16.1093Z" fill="#FF2BC2"/>
</g>
<defs>
<clipPath id="clip0_4_45">
<rect width="36" height="35" fill="white"/>
</clipPath>
</defs>
</svg>
