<svg width="36" height="41" viewBox="0 0 36 41" fill="none" xmlns="http://www.w3.org/2000/svg">
<g id="react-2 1">
<g id="Group">
<path id="Vector" d="M36 20.5037C36 18.12 33.0135 15.8611 28.4346 14.4603C29.4912 9.79573 29.0216 6.08462 26.9523 4.89648C26.4753 4.61778 25.9177 4.48577 25.3086 4.48577V6.12129C25.6461 6.12129 25.9177 6.1873 26.1451 6.31198C27.1431 6.88405 27.576 9.06231 27.2385 11.864C27.1578 12.5534 27.0257 13.2795 26.8642 14.0202C25.426 13.6682 23.8557 13.3968 22.2046 13.2208C21.214 11.864 20.1867 10.6318 19.1521 9.5537C21.5442 7.33144 23.7896 6.11396 25.3159 6.11396V4.47843C23.298 4.47843 20.6563 5.91594 17.9853 8.40956C15.3143 5.9306 12.6726 4.50777 10.6547 4.50777V6.1433C12.1737 6.1433 14.4264 7.35344 16.8186 9.56103C15.7913 10.6392 14.764 11.864 13.788 13.2208C12.1296 13.3968 10.5593 13.6682 9.12108 14.0276C8.9523 13.2941 8.82756 12.5827 8.7395 11.9006C8.39462 9.09898 8.82022 6.92072 9.81084 6.34132C10.031 6.2093 10.3172 6.15063 10.6547 6.15063V4.5151C10.0383 4.5151 9.48064 4.64712 8.99633 4.92582C6.93437 6.11396 6.47207 9.81773 7.53608 14.4676C2.97187 15.8758 0 18.1274 0 20.5037C0 22.8873 2.98655 25.1462 7.56543 26.547C6.50876 31.2116 6.97839 34.9227 9.0477 36.1108C9.52466 36.3895 10.0823 36.5216 10.6987 36.5216C12.7167 36.5216 15.3583 35.0841 18.0294 32.5904C20.7004 35.0694 23.342 36.4922 25.36 36.4922C25.9764 36.4922 26.534 36.3602 27.0183 36.0815C29.0803 34.8934 29.5426 31.1896 28.4786 26.5397C33.0281 25.1389 36 22.8799 36 20.5037ZM26.446 15.6118C26.1745 16.5579 25.8369 17.5333 25.4554 18.5088C25.1545 17.922 24.839 17.3353 24.4941 16.7486C24.1565 16.1618 23.797 15.5897 23.4374 15.0323C24.4794 15.1864 25.4847 15.3771 26.446 15.6118ZM23.0852 23.4227C22.5128 24.4128 21.9258 25.3516 21.3168 26.2243C20.2234 26.3197 19.1154 26.371 18 26.371C16.892 26.371 15.7839 26.3197 14.6979 26.2317C14.0889 25.3589 13.4945 24.4275 12.9221 23.4447C12.3645 22.4839 11.8581 21.5084 11.3958 20.5257C11.8508 19.5429 12.3645 18.5601 12.9148 17.5993C13.4872 16.6092 14.0742 15.6704 14.6832 14.7977C15.7766 14.7023 16.8846 14.651 18 14.651C19.108 14.651 20.2161 14.7023 21.3021 14.7903C21.9111 15.6631 22.5055 16.5945 23.0779 17.5773C23.6355 18.5381 24.1419 19.5135 24.6042 20.4963C24.1419 21.4791 23.6355 22.4619 23.0852 23.4227ZM25.4554 22.4692C25.8516 23.452 26.1892 24.4348 26.468 25.3882C25.5067 25.6229 24.4941 25.821 23.4448 25.975C23.8043 25.4102 24.1639 24.8308 24.5014 24.2368C24.839 23.65 25.1545 23.056 25.4554 22.4692ZM18.0147 30.2948C17.3322 29.5907 16.6498 28.806 15.9747 27.9479C16.6351 27.9772 17.3102 27.9992 17.9927 27.9992C18.6824 27.9992 19.3649 27.9846 20.0326 27.9479C19.3722 28.806 18.6898 29.5907 18.0147 30.2948ZM12.5552 25.975C11.5132 25.821 10.5079 25.6303 9.54668 25.3956C9.81818 24.4495 10.1557 23.474 10.5373 22.4986C10.8382 23.0853 11.1537 23.672 11.4986 24.2588C11.8435 24.8455 12.1957 25.4176 12.5552 25.975ZM17.978 10.7125C18.6604 11.4166 19.3428 12.2013 20.0179 13.0594C19.3575 13.0301 18.6824 13.0081 18 13.0081C17.3102 13.0081 16.6278 13.0228 15.9601 13.0594C16.6205 12.2013 17.3029 11.4166 17.978 10.7125ZM12.5479 15.0323C12.1883 15.5971 11.8288 16.1765 11.4912 16.7706C11.1537 17.3573 10.8382 17.944 10.5373 18.5308C10.1411 17.548 9.80351 16.5652 9.52466 15.6118C10.4859 15.3844 11.4986 15.1864 12.5479 15.0323ZM5.90705 24.2148C3.30942 23.1073 1.62903 21.6551 1.62903 20.5037C1.62903 19.3522 3.30942 17.8927 5.90705 16.7926C6.53812 16.5212 7.22788 16.2792 7.93967 16.0518C8.35793 17.4893 8.90828 18.9855 9.59071 20.5183C8.91561 22.0438 8.37261 23.5327 7.96168 24.9629C7.23522 24.7355 6.54546 24.4861 5.90705 24.2148ZM9.85487 34.6953C8.85691 34.1233 8.42397 31.945 8.76152 29.1434C8.84224 28.4539 8.97432 27.7279 9.13575 26.9871C10.574 27.3391 12.1443 27.6105 13.7954 27.7865C14.786 29.1434 15.8133 30.3755 16.8479 31.4536C14.4558 33.6759 12.2104 34.8934 10.6841 34.8934C10.3539 34.886 10.075 34.82 9.85487 34.6953ZM27.2605 29.1067C27.6054 31.9083 27.1798 34.0866 26.1892 34.666C25.969 34.798 25.6828 34.8567 25.3453 34.8567C23.8263 34.8567 21.5736 33.6466 19.1814 31.439C20.2087 30.3608 21.236 29.136 22.212 27.7792C23.8704 27.6032 25.4407 27.3318 26.8789 26.9724C27.0477 27.7132 27.1798 28.4246 27.2605 29.1067ZM30.0856 24.2148C29.4545 24.4861 28.7648 24.7282 28.053 24.9555C27.6347 23.518 27.0844 22.0218 26.402 20.489C27.077 18.9635 27.6201 17.4746 28.031 16.0445C28.7574 16.2718 29.4472 16.5212 30.0929 16.7926C32.6906 17.9 34.371 19.3522 34.371 20.5037C34.3636 21.6551 32.6832 23.1146 30.0856 24.2148Z" fill="#61DAFB"/>
<path id="Vector_2" d="M17.9926 23.8554C19.8447 23.8554 21.346 22.3548 21.346 20.5037C21.346 18.6526 19.8447 17.1519 17.9926 17.1519C16.1405 17.1519 14.6392 18.6526 14.6392 20.5037C14.6392 22.3548 16.1405 23.8554 17.9926 23.8554Z" fill="#61DAFB"/>
</g>
</g>
</svg>
