<svg width="48" height="29" viewBox="0 0 48 29" fill="none" xmlns="http://www.w3.org/2000/svg">
<g id="tailwind-css-2 1" clip-path="url(#clip0_4_30)">
<path id="Vector" d="M23.9998 0C17.6021 0 13.6038 3.22229 12.0042 9.66626C14.4036 6.44397 17.2025 5.23607 20.4011 6.04134C22.2262 6.5008 23.5306 7.83506 24.9748 9.31139C27.3267 11.7163 30.0488 14.4997 35.9953 14.4997C42.3924 14.4997 46.3913 11.2774 47.9903 4.83283C45.5915 8.05512 42.7926 9.26363 39.5935 8.45836C37.7689 7.99889 36.4645 6.66464 35.0203 5.18831C32.6684 2.78338 29.9457 0 23.9998 0ZM12.0042 14.4997C5.60716 14.4997 1.60824 17.722 0.00927734 24.1666C2.40803 20.9443 5.20697 19.7358 8.4061 20.5416C10.2307 21.0017 11.535 22.3354 12.9792 23.8111C15.3312 26.216 18.0539 29 23.9998 29C30.3974 29 34.3958 25.7777 35.9953 19.3331C33.596 22.5554 30.797 23.7639 27.5985 22.9581C25.7733 22.4992 24.469 21.1643 23.0248 19.6886C20.6728 17.2837 17.9507 14.4997 12.0042 14.4997Z" fill="#06B6D4"/>
</g>
<defs>
<clipPath id="clip0_4_30">
<rect width="48" height="29" fill="white"/>
</clipPath>
</defs>
</svg>
