<svg width="38" height="38" viewBox="0 0 38 38" fill="none" xmlns="http://www.w3.org/2000/svg">
<g id="logo-javascript 1" clip-path="url(#clip0_4_9)">
<path id="Vector" d="M0 0H38V38H0V0Z" fill="#F0DB4F"/>
<path id="Vector_2" d="M34.89 28.9371C34.6118 27.2032 33.4812 25.7475 30.1327 24.3894C28.9696 23.8548 27.6728 23.4719 27.2863 22.5905C27.1491 22.0776 27.131 21.7886 27.2177 21.4779C27.4669 20.4702 28.6698 20.1559 29.6234 20.4449C30.2375 20.6508 30.819 21.124 31.1694 21.8789C32.8093 20.817 32.8057 20.8241 33.9508 20.0945C33.5318 19.4443 33.3078 19.1445 33.0333 18.8664C32.0472 17.7647 30.7034 17.1976 28.5542 17.2409C28.1822 17.2879 27.8065 17.3384 27.4344 17.3854C26.3617 17.6563 25.3394 18.2198 24.7398 18.9748C22.9409 21.0156 23.4538 24.588 25.6428 26.0582C27.7993 27.6765 30.9671 28.0449 31.3717 29.5584C31.7654 31.4114 30.0099 32.011 28.2652 31.7979C26.9793 31.5306 26.2641 30.8768 25.4911 29.6884C24.0679 30.512 24.0679 30.512 22.605 31.3537C22.9518 32.1122 23.3166 32.4554 23.8982 33.1128C26.6506 35.905 33.539 35.7677 34.7744 31.5415C34.8249 31.397 35.1573 30.4289 34.89 28.9371ZM20.658 17.4648H17.1036C17.1036 20.5352 17.0892 23.5838 17.0892 26.6542C17.0892 28.6084 17.1904 30.4 16.8725 30.9491C16.3523 32.0291 15.005 31.8954 14.3909 31.6859C13.766 31.3789 13.4482 30.9418 13.0797 30.3241C12.9786 30.1472 12.9027 30.0099 12.8774 29.9991C11.913 30.5878 10.9521 31.1802 9.98767 31.769C10.4681 32.7551 11.1761 33.6112 12.0827 34.1675C13.4373 34.9802 15.2578 35.2294 17.1615 34.7924C18.4004 34.4311 19.4696 33.6835 20.0295 32.5456C20.8386 31.0538 20.6652 29.2477 20.658 27.2502C20.6761 23.992 20.658 20.7338 20.658 17.4648Z" fill="#323330"/>
</g>
<defs>
<clipPath id="clip0_4_9">
<rect width="38" height="38" fill="white"/>
</clipPath>
</defs>
</svg>
