<svg width="36" height="35" viewBox="0 0 36 35" fill="none" xmlns="http://www.w3.org/2000/svg">
<g id="adobe-photoshop-cs6 1" clip-path="url(#clip0_4_39)">
<path id="Vector" d="M0.00256348 0H35.9977V35H0.00256348V0Z" fill="url(#paint0_linear_4_39)"/>
<path id="Vector_2" d="M2.86511 2.78327H33.1351V32.2167H2.86511V2.78327Z" fill="url(#paint1_linear_4_39)"/>
<g id="Group">
<path id="Vector_3" d="M8.70105 9.86454C8.70105 9.86454 10.9769 9.80534 12.8503 9.80534C14.7434 9.80534 16.0932 10.2457 16.9995 11.0197C17.8656 11.751 18.4497 12.9977 18.4497 14.4169C18.4497 15.8361 18.0065 16.9974 17.2007 17.8139C16.1534 18.8676 14.9329 19.4913 12.8503 19.5776C12.275 19.6014 11.7425 19.6071 11.7425 19.6071V24.2205H8.70093L8.70105 9.86454ZM11.7424 17.0512C12.0728 17.083 12.2799 17.0677 12.7697 17.0618C14.4012 17.0425 15.408 16.0614 15.408 14.5778C15.408 13.2449 14.5779 12.1506 13.0116 12.0939C12.3873 12.0713 11.7424 12.0939 11.7424 12.0939V17.0512Z" fill="url(#paint2_linear_4_39)"/>
<path id="Vector_4" d="M19.6104 21.0065C20.2234 21.3785 21.67 21.9355 22.656 21.9355C23.6634 21.9355 24.0793 21.5844 24.0793 21.0371C24.0793 20.4891 23.7508 19.9135 22.5022 19.4973C20.2898 18.7523 19.4354 17.8606 19.4576 16.6124C19.4576 14.5965 21.1659 13.085 23.8163 13.085C25.0649 13.085 26.0623 13.4886 26.7189 13.817V16.2364C26.2365 15.9733 24.8458 15.3858 23.926 15.3858C23.115 15.3858 22.6554 15.7144 22.6554 16.2616C22.6554 16.7656 23.0718 17.0285 24.386 17.4888C26.4228 18.1898 27.2772 19.2192 27.2988 20.7965C27.2988 22.7903 25.7445 24.3758 22.6554 24.2796C21.5952 24.2466 20.4207 23.8322 19.6102 23.3946L19.6104 21.0065Z" fill="url(#paint3_linear_4_39)"/>
</g>
</g>
<defs>
<linearGradient id="paint0_linear_4_39" x1="8.74998" y1="-1.82783" x2="22.2968" y2="27.1204" gradientUnits="userSpaceOnUse">
<stop stop-color="#A0CBFF"/>
<stop offset="0.394" stop-color="#A0CBFE"/>
<stop offset="0.583" stop-color="#8EC2FC"/>
<stop offset="0.784" stop-color="#83BCFB"/>
<stop offset="1" stop-color="#7FBAFB"/>
</linearGradient>
<linearGradient id="paint1_linear_4_39" x1="13.6476" y1="3.19805" x2="21.2874" y2="28.8727" gradientUnits="userSpaceOnUse">
<stop stop-color="#090058"/>
<stop offset="1" stop-color="#070033"/>
</linearGradient>
<linearGradient id="paint2_linear_4_39" x1="4.4583" y1="-0.293765" x2="18.005" y2="28.6541" gradientUnits="userSpaceOnUse">
<stop stop-color="#A0CBFF"/>
<stop offset="0.394" stop-color="#A0CBFE"/>
<stop offset="0.583" stop-color="#8EC2FC"/>
<stop offset="0.784" stop-color="#83BCFB"/>
<stop offset="1" stop-color="#7FBAFB"/>
</linearGradient>
<linearGradient id="paint3_linear_4_39" x1="12.3177" y1="-4.05822" x2="25.9181" y2="25.0044" gradientUnits="userSpaceOnUse">
<stop stop-color="#A0CBFF"/>
<stop offset="0.394" stop-color="#A0CBFE"/>
<stop offset="0.583" stop-color="#8EC2FC"/>
<stop offset="0.784" stop-color="#83BCFB"/>
<stop offset="1" stop-color="#7FBAFB"/>
</linearGradient>
<clipPath id="clip0_4_39">
<rect width="36" height="35" fill="white"/>
</clipPath>
</defs>
</svg>
