<svg width="25" height="37" viewBox="0 0 25 37" fill="none" xmlns="http://www.w3.org/2000/svg">
<g id="figma-icon 1" clip-path="url(#clip0_4_32)">
<g id="Group">
<path id="Vector" d="M6.25 37C9.69849 37 12.5 34.2388 12.5 30.8333V24.6667H6.25C2.80151 24.6667 0 27.4278 0 30.8333C0 34.2388 2.80151 37 6.25 37Z" fill="#0ACF83"/>
<path id="Vector_2" d="M0 18.5C0 15.0975 2.80151 12.3333 6.25 12.3333H12.5V24.6667H6.25C2.80151 24.6667 0 21.9055 0 18.5Z" fill="#A259FF"/>
<path id="Vector_3" d="M0 6.16667C0 2.76416 2.80151 0 6.25 0H12.5V12.3333H6.25C2.80151 12.3333 0 9.57218 0 6.16667Z" fill="#F24E1E"/>
<path id="Vector_4" d="M12.5 0H18.75C22.1985 0 25 2.76416 25 6.16667C25 9.57218 22.2015 12.3333 18.75 12.3333H12.5V0Z" fill="#FF7262"/>
<path id="Vector_5" d="M25 18.5C25 21.9055 22.2015 24.6667 18.75 24.6667C15.2985 24.6667 12.5 21.9055 12.5 18.5C12.5 15.0975 15.2985 12.3333 18.75 12.3333C22.2015 12.3333 25 15.0975 25 18.5Z" fill="#1ABCFE"/>
</g>
</g>
<defs>
<clipPath id="clip0_4_32">
<rect width="25" height="37" fill="white"/>
</clipPath>
</defs>
</svg>
