<svg width="35" height="35" viewBox="0 0 35 35" fill="none" xmlns="http://www.w3.org/2000/svg">
<g id="wordpress-icon-1 1" clip-path="url(#clip0_4_24)">
<path id="Vector" d="M17.5007 35C7.8026 35 -0.0723949 27.2706 0.000749585 17.5C0.0738941 7.72939 7.43825 0 17.5007 0C27.5639 0 35.0007 7.875 35.0007 17.5C35.0007 27.125 27.1989 35 17.5007 35ZM22.6776 32.3019L17.7195 18.9581L13.0526 32.5937C16.4801 33.3963 18.8132 33.6144 22.6776 32.3019ZM10.5739 31.5731L3.13639 11.2294C2.11511 13.4169 1.89704 15.24 1.75075 17.5C1.82389 23.4787 5.17761 28.9475 10.5739 31.5731ZM33.1783 17.5C33.2507 13.6356 31.5014 10.5731 31.3551 10.1356C31.5014 13.1257 31.0632 14.6562 30.5533 16.3338L25.4489 30.99C31.8658 27.125 33.1045 21.3644 33.2507 17.5H33.1783ZM16.9908 16.8438L14.5114 10.0625L12.6882 9.91689C11.9595 9.40625 12.3964 8.60439 12.907 8.60439C16.1882 8.82314 18.0107 8.82314 21.2926 8.60439C22.0952 8.60439 22.3132 9.77129 21.3651 9.91689L19.6151 10.0625L25.3019 26.8331L27.9994 17.6456C28.1457 13.6356 27.0512 13.1981 25.5931 10.2812C24.4262 8.02061 25.6663 5.83311 27.9269 5.76064C26.1031 4.01064 22.385 1.82314 17.4994 1.75C12.6137 1.67686 7.43688 4.15625 4.37438 8.82314L9.77067 8.67754C10.4269 8.96943 10.135 9.91689 9.77067 9.99004L7.87507 10.1356L13.5626 27.1981L16.9908 16.8438Z" fill="#21759B"/>
</g>
<defs>
<clipPath id="clip0_4_24">
<rect width="35" height="35" fill="white"/>
</clipPath>
</defs>
</svg>
