<svg width="38" height="38" viewBox="0 0 38 38" fill="none" xmlns="http://www.w3.org/2000/svg">
<g id="CSS3_logo 1">
<path id="Vector" d="M5.29598 34.2014L2.2467 0H35.7532L32.7007 34.196L18.9795 38L5.29598 34.2014Z" fill="#264DE4"/>
<path id="Vector_2" d="M30.0874 32.0186L32.696 2.79642H19V35.0924L30.0874 32.0186Z" fill="#2965F1"/>
<path id="Vector_3" d="M9.23728 15.4813L9.6132 19.6759H19V15.4813H9.23728ZM8.86315 11.1859H19V6.99118H8.48181L8.86315 11.1859ZM19 26.3753L18.9816 26.3802L14.31 25.1187L14.0114 21.7733H9.80053L10.3883 28.3595L18.9807 30.7449L19 30.7395V26.3753Z" fill="#EBEBEB"/>
<path id="Vector_4" d="M18.9855 15.4813V19.6759H24.1507L23.6639 25.1161L18.9855 26.3788V30.7428L27.5848 28.3595L27.6478 27.6508L28.6335 16.6076L28.7359 15.4813L29.4931 6.99118H18.9855V11.1859H24.8962L24.5144 15.4813H18.9855Z" fill="white"/>
</g>
</svg>
