<svg width="45" height="36" viewBox="0 0 45 36" fill="none" xmlns="http://www.w3.org/2000/svg">
<g id="bootstrap-5-1 1" clip-path="url(#clip0_4_14)">
<path id="Vector" fill-rule="evenodd" clip-rule="evenodd" d="M9.34664 0.00434875C6.779 0.00434875 4.87907 2.26074 4.96415 4.70773C5.0458 7.05863 4.93972 10.1034 4.1763 12.5864C3.41016 15.0764 2.11535 16.6542 0 16.8568V19.1433C2.11535 19.3463 3.41016 20.9234 4.17621 23.4137C4.93972 25.8967 5.04571 28.9415 4.96406 31.2924C4.87898 33.739 6.77892 35.9957 9.34699 35.9957H35.6568C38.2244 35.9957 40.124 33.7393 40.0389 31.2924C39.9573 28.9415 40.0634 25.8967 40.8268 23.4137C41.5929 20.9234 42.8846 19.3457 45 19.1433V16.8568C42.8846 16.6538 41.593 15.0767 40.8268 12.5864C40.0633 10.1037 39.9573 7.05863 40.0389 4.70773C40.124 2.26109 38.2244 0.00434875 35.6568 0.00434875H9.34629H9.34664ZM30.5085 22.1594C30.5085 25.5288 28.0053 27.5723 23.8511 27.5723H16.7796C16.5774 27.5723 16.3834 27.4916 16.2403 27.348C16.0973 27.2044 16.0169 27.0096 16.0169 26.8065V9.19368C16.0169 8.99059 16.0973 8.79581 16.2403 8.6522C16.3834 8.50859 16.5774 8.42791 16.7796 8.42791H23.8109C27.2747 8.42791 29.548 10.3117 29.548 13.204C29.548 15.234 28.0187 17.0514 26.0705 17.3698V17.4757C28.7227 17.7678 30.5085 19.6121 30.5085 22.1594ZM23.0801 10.8554H19.048V16.5736H22.444C25.0693 16.5736 26.5169 15.5122 26.5169 13.615C26.5166 11.8371 25.2721 10.8554 23.0801 10.8554ZM19.048 18.8424V25.144H23.2284C25.9618 25.144 27.4097 24.0428 27.4097 21.9733C27.4097 19.9038 25.9212 18.8421 23.0527 18.8421H19.048V18.8424Z" fill="#7952B3"/>
</g>
<defs>
<clipPath id="clip0_4_14">
<rect width="45" height="36" fill="white"/>
</clipPath>
</defs>
</svg>
