<svg width="39" height="36" viewBox="0 0 39 36" fill="none" xmlns="http://www.w3.org/2000/svg">
<g id="jquery-4 1">
<path id="Vector" d="M5.02165 23.2063C5.05495 23.2824 5.09261 23.3527 5.13316 23.423C5.15198 23.464 5.17805 23.5065 5.20122 23.5445C5.23887 23.6207 5.27942 23.6939 5.31852 23.7671L5.54589 24.1538C5.58788 24.2255 5.62843 24.2958 5.67622 24.3661C5.75587 24.5038 5.85001 24.6385 5.93255 24.7762C5.9702 24.8333 6.00496 24.8904 6.04696 24.9475C6.20626 25.198 6.35108 25.4059 6.50603 25.608C6.61609 25.7589 6.72616 25.9068 6.84491 26.0547C6.88401 26.1103 6.92745 26.166 6.968 26.2216L7.28805 26.6141C7.32715 26.6595 7.36625 26.7122 7.40825 26.7591C7.55017 26.9319 7.70078 27.0989 7.85139 27.2687C7.85139 27.2717 7.85574 27.2746 7.85863 27.279C8.04545 27.5162 8.24675 27.7271 8.46687 27.9146L8.47266 27.9204C8.58852 28.0405 8.70437 28.1591 8.82747 28.2763L8.97373 28.4184C9.13448 28.5707 9.29523 28.7215 9.46467 28.868C9.46756 28.868 9.46901 28.8709 9.47191 28.8723L9.55445 28.9456C9.70217 29.0759 9.85133 29.2048 10.0034 29.3249L10.1844 29.4786C10.3075 29.5782 10.4349 29.672 10.5609 29.7701L10.7579 29.9224C10.8926 30.0249 11.0359 30.1245 11.1735 30.2241C11.2242 30.2607 11.2749 30.2973 11.327 30.331L11.369 30.3647L11.776 30.6341L11.9497 30.7513C12.1626 30.8889 12.3741 31.0178 12.5855 31.1467C12.6463 31.1774 12.7071 31.2111 12.7636 31.2463C12.92 31.3371 13.0822 31.4293 13.2401 31.5128C13.327 31.5626 13.4168 31.6051 13.5065 31.6505C13.6152 31.712 13.7281 31.772 13.844 31.8335C13.8758 31.8438 13.9019 31.854 13.928 31.8687L13.9338 31.8628C13.9815 31.8848 14.0264 31.9082 14.0728 31.9317C14.2466 32.0195 14.4276 32.103 14.6158 32.185C14.6506 32.1997 14.6883 32.2143 14.7259 32.2348C14.9344 32.3271 15.143 32.4149 15.3588 32.4999C15.408 32.5145 15.4601 32.5394 15.5108 32.5585C15.7063 32.6331 15.9076 32.7093 16.1075 32.7811L16.1799 32.8074C16.4015 32.8836 16.6201 32.9568 16.846 33.0256C16.8982 33.0403 16.9518 33.0593 17.0068 33.074C17.2371 33.1443 17.4601 33.2277 17.6932 33.2717C32.5704 36 36.8932 24.2709 36.8932 24.2709C33.2612 29.0305 26.8153 30.2856 20.7112 28.8885C20.4853 28.8357 20.2594 28.7625 20.0306 28.6951C19.7076 28.6027 19.3874 28.5006 19.0705 28.3891L19.208 28.4315L19.1182 28.3964C18.9213 28.329 18.7316 28.2543 18.539 28.1796C18.4918 28.1594 18.444 28.1409 18.3956 28.124L18.3797 28.1196C18.1668 28.0332 17.9597 27.9453 17.7541 27.8531C17.7092 27.8384 17.6715 27.8179 17.6266 27.8003C17.383 27.693 17.1416 27.5807 16.9025 27.4635L17.1024 27.5528C17.0502 27.5295 16.999 27.5041 16.9489 27.4767C16.8127 27.4123 16.6766 27.339 16.5434 27.2702C16.4419 27.2216 16.3419 27.1698 16.2436 27.115L16.2726 27.1296C16.1089 27.0417 15.9453 26.9465 15.7802 26.8572C15.7309 26.8221 15.6745 26.7928 15.618 26.7606C15.3726 26.6163 15.1302 26.4669 14.891 26.3124L14.9822 26.3681C14.9209 26.3298 14.861 26.2892 14.8027 26.2465L14.8114 26.2524C14.6557 26.1557 14.5031 26.0541 14.3537 25.9478C14.3045 25.9156 14.2596 25.8804 14.2089 25.8453C14.0529 25.7376 13.8993 25.6262 13.7484 25.5114L13.7831 25.5362C13.7223 25.4865 13.6572 25.4396 13.592 25.3913C13.4645 25.2902 13.3357 25.1936 13.2082 25.0881L13.0373 24.9505C12.8552 24.8039 12.6765 24.653 12.5015 24.4979L12.5001 24.4965L11.9975 24.0352L11.8527 23.8975C11.734 23.7759 11.6123 23.6602 11.4907 23.5402L11.3502 23.3937C11.2003 23.2435 11.054 23.0897 10.9114 22.9324L10.9027 22.9221L10.8781 22.9016C10.7248 22.7313 10.5736 22.559 10.4248 22.3847C10.3857 22.3393 10.3495 22.2909 10.309 22.2426L9.98022 21.8399C9.83203 21.6517 9.68719 21.4608 9.54576 21.2673L9.48784 21.1853C6.10199 16.534 4.87683 10.1152 7.58637 4.84892L5.19398 7.90823C2.11659 12.3588 2.49747 18.1465 4.85076 22.8723C4.90434 22.988 4.96372 23.0964 5.02165 23.2063Z" fill="#1266A9"/>
<path id="Vector_2" d="M15.3863 16.7947L15.3703 16.7713L15.3573 16.7537L15.3863 16.7947Z" fill="black"/>
<path id="Vector_3" d="M17.0054 18.7161L17.1357 18.8479C17.3008 19.009 17.4703 19.1657 17.6426 19.3224L17.6643 19.3415C17.8381 19.4967 18.0336 19.6593 18.2349 19.8174L18.2653 19.8409C18.3145 19.8745 18.3565 19.9141 18.4043 19.9478C18.6071 20.1059 18.8113 20.2568 19.0242 20.4076L19.0459 20.4208C19.1357 20.4867 19.2312 20.5467 19.3326 20.6112C19.3732 20.6375 19.4195 20.6727 19.463 20.6991C19.6165 20.7986 19.7671 20.8909 19.922 20.9861C19.9466 20.9963 19.9684 21.0095 19.9915 21.0198C20.1219 21.1003 20.2638 21.1779 20.3999 21.2482C20.4477 21.2775 20.4941 21.2995 20.5433 21.3273C20.6403 21.3756 20.7359 21.4269 20.8286 21.4767L20.8749 21.4972C21.0704 21.5939 21.2703 21.6847 21.4658 21.774C21.515 21.793 21.557 21.8091 21.599 21.8296C21.7598 21.8999 21.9234 21.9673 22.0842 22.0288C22.1566 22.0537 22.2246 22.083 22.2927 22.105C22.4404 22.1606 22.5954 22.2119 22.7416 22.2631L22.9444 22.329C23.1558 22.3949 23.3701 22.4813 23.5946 22.5165C35.083 24.4291 37.7419 15.5294 37.7419 15.5294C35.3481 18.9959 30.7153 20.6478 25.7785 19.3576C25.532 19.2947 25.2876 19.2239 25.0457 19.1452L25.1282 19.1687C25.0587 19.1496 24.9979 19.1277 24.9313 19.1072C24.7807 19.0544 24.6257 19.0032 24.4795 18.949L24.2709 18.8699C24.1087 18.804 23.9436 18.7425 23.7858 18.6722C23.7365 18.6502 23.6916 18.6356 23.654 18.6136C23.4512 18.5214 23.247 18.4306 23.0486 18.3339L22.7503 18.1772L22.578 18.0893C22.4448 18.019 22.3217 17.9458 22.1942 17.8711C22.1617 17.8557 22.1303 17.8381 22.1001 17.8184L22.1044 17.8199C21.9509 17.7232 21.7916 17.6295 21.6439 17.5314C21.5947 17.5035 21.5498 17.4699 21.5034 17.4406L21.2022 17.2429C20.9937 17.0964 20.7895 16.9397 20.5824 16.7874C20.5361 16.7449 20.4912 16.7098 20.4463 16.6717C18.2754 14.9539 16.5637 12.6063 15.7513 9.94826C14.8954 7.18477 15.0836 4.08592 16.5622 1.57139L14.7448 4.16061C12.5131 7.38394 12.6391 11.6925 14.3769 15.1018C14.6941 15.7315 15.0156 16.2631 15.3704 16.7698C15.7006 17.2473 16.0655 17.8067 16.5058 18.1904C16.6622 18.3705 16.8302 18.5419 17.0054 18.7161Z" fill="#1266A9"/>
<path id="Vector_4" d="M6.51324 25.6168L6.50745 25.608L6.49731 25.5948L6.51324 25.6168ZM12.5348 24.5272L12.5493 24.5375L12.5522 24.5419L12.5348 24.5272Z" fill="black"/>
<path id="Vector_5" d="M22.7763 1.35758C21.4599 3.30095 21.3339 5.71443 22.2405 7.85697C23.2035 10.1328 25.1716 11.9195 27.4655 12.7659C27.5597 12.8025 27.6509 12.8333 27.7479 12.8684L27.8754 12.908C28.0086 12.9505 28.1433 13.0002 28.2808 13.031C34.6253 14.2626 36.3429 9.75348 36.8048 9.09007C35.2944 11.2722 32.7615 11.7964 29.6537 11.0364C29.3835 10.9697 29.1175 10.8866 28.8572 10.7874L28.905 10.8035C28.5811 10.6902 28.264 10.5581 27.955 10.4081L28.01 10.433C27.4163 10.1401 26.9065 9.82377 26.433 9.46058C23.6554 7.33708 21.9378 3.29363 23.7509 0L22.7763 1.35758Z" fill="#1266A9"/>
</g>
</svg>
