<svg width="50" height="37" viewBox="0 0 50 37" fill="none" xmlns="http://www.w3.org/2000/svg">
<g id="sass-1 1" clip-path="url(#clip0_4_12)">
<path id="Vector" d="M43.0273 21.2557C41.2792 21.2655 39.7656 21.6797 38.496 22.2964C38.0273 21.3811 37.5585 20.5812 37.4805 19.9839C37.3926 19.2902 37.2852 18.8661 37.3926 18.0376C37.4999 17.2088 37.9882 16.0333 37.9882 15.937C37.9784 15.8503 37.8807 15.4263 36.8749 15.4167C35.8692 15.407 34.9999 15.6094 34.9023 15.8695C34.8046 16.1297 34.6093 16.7271 34.4824 17.3437C34.3066 18.2495 32.4706 21.4581 31.4257 23.1443C31.0839 22.4891 30.791 21.9109 30.7323 21.4483C30.6445 20.7547 30.537 20.3306 30.6445 19.5021C30.7519 18.6733 31.2402 17.4979 31.2402 17.4016C31.2304 17.3148 31.1328 16.8909 30.127 16.8812C29.121 16.8716 28.252 17.074 28.1543 17.3341C28.0567 17.5943 27.9493 18.2109 27.7344 18.8083C27.5292 19.4057 25.0878 24.763 24.4531 26.1602C24.1308 26.8732 23.8477 27.4417 23.6425 27.8271C23.4374 28.2125 23.6328 27.856 23.6132 27.8945C23.4374 28.2221 23.3398 28.4052 23.3398 28.4052V28.4149C23.2031 28.6558 23.0566 28.887 22.9881 28.887C22.9393 28.887 22.8416 28.2414 23.0077 27.355C23.369 25.4953 24.2479 22.5951 24.2382 22.4892C24.2382 22.441 24.4041 21.9302 23.6717 21.6701C22.9588 21.41 22.705 21.8436 22.6463 21.8436C22.5877 21.8436 22.5389 21.9977 22.5389 21.9977C22.5389 21.9977 23.3299 18.7314 21.0252 18.7314C19.5799 18.7314 17.5877 20.2827 16.6014 21.6991C15.9764 22.0364 14.6483 22.7493 13.242 23.5106C12.7049 23.7997 12.1483 24.108 11.6209 24.3874L11.5136 24.2716C8.72065 21.3328 3.55463 19.2516 3.76947 15.301C3.8476 13.8654 4.35541 10.0786 13.6914 5.49218C21.3379 1.73437 27.461 2.76536 28.5253 5.05859C30.039 8.33463 25.2538 14.4242 17.3047 15.301C14.2774 15.6383 12.6855 14.482 12.2852 14.0484C11.8653 13.5956 11.8067 13.5763 11.6504 13.663C11.3965 13.7979 11.5528 14.2026 11.6504 14.4435C11.8848 15.0505 12.8614 16.1297 14.5215 16.6693C15.9765 17.1414 19.5313 17.4016 23.8282 15.7635C28.6426 13.9232 32.4024 8.8164 31.2989 4.54791C30.1758 0.202338 22.8711 -1.2237 15.9668 1.19479C11.8554 2.6401 7.40229 4.89479 4.19916 7.85286C0.390568 11.3602 -0.214901 14.4242 0.0390053 15.6961C0.927775 20.2344 7.26557 23.1924 9.80463 25.3797C9.67768 25.447 9.56049 25.5145 9.45307 25.5724C8.18354 26.189 3.34955 28.6846 2.13861 31.3246C0.771427 34.3116 2.35346 36.4604 3.40815 36.7495C6.66987 37.6456 10.0097 36.0365 11.8163 33.3867C13.6131 30.737 13.3984 27.2971 12.5683 25.7266L12.5389 25.6687L13.535 25.0906C14.1796 24.7148 14.8144 24.368 15.3709 24.0692C15.0585 24.9074 14.8338 25.8999 14.7167 27.3452C14.58 29.0411 15.2831 31.2379 16.2109 32.1051C16.621 32.4808 17.1093 32.4905 17.4121 32.4905C18.4863 32.4905 18.9746 31.6136 19.5117 30.5634C20.1757 29.2819 20.7617 27.7981 20.7617 27.7981C20.7617 27.7981 20.0292 31.816 22.0312 31.816C22.7636 31.816 23.496 30.8814 23.8281 30.3996V30.4093C23.8281 30.4093 23.8476 30.3804 23.8867 30.3129C23.9276 30.2531 23.9667 30.1921 24.0038 30.1299V30.1107C24.2968 29.6096 24.9511 28.463 25.9277 26.5648C27.1873 24.1174 28.3984 21.0534 28.3984 21.0534C28.3984 21.0534 28.5156 21.8049 28.8769 23.0383C29.0916 23.7707 29.5604 24.5703 29.9217 25.3508C29.6287 25.7555 29.453 25.9868 29.453 25.9868L29.4627 25.9964C29.2285 26.3048 28.9647 26.6325 28.6913 26.96C27.6953 28.1355 26.5038 29.4749 26.3476 29.8603C26.1621 30.3131 26.2011 30.6504 26.5624 30.9202C26.8261 31.113 27.2949 31.1514 27.7929 31.113C28.6913 31.055 29.3163 30.8335 29.6288 30.6985C30.1171 30.5251 30.6738 30.2649 31.2109 29.8795C32.1874 29.1666 32.7831 28.1549 32.7246 26.8059C32.6953 26.064 32.4511 25.3317 32.1484 24.6379C32.2363 24.5127 32.3243 24.3873 32.4121 24.2525C33.955 22.0267 35.1464 19.5794 35.1464 19.5794C35.1464 19.5794 35.2636 20.3309 35.6249 21.5643C35.8104 22.1906 36.1816 22.8748 36.5136 23.5492C35.0683 24.7151 34.1601 26.0641 33.8476 26.9505C33.2714 28.5886 33.7206 29.3305 34.5703 29.5039C34.951 29.581 35.498 29.4076 35.908 29.2341C36.4159 29.0703 37.0311 28.7908 37.5976 28.3766C38.5742 27.6636 39.5117 26.6711 39.4628 25.3318C39.4335 24.7151 39.2675 24.1081 39.0429 23.53C40.2734 23.0289 41.8651 22.7399 43.8867 22.9808C48.2324 23.4818 49.0917 26.1604 48.9258 27.2782C48.7598 28.396 47.8516 29.0125 47.5488 29.2052C47.246 29.3883 47.1484 29.4559 47.1777 29.5907C47.2167 29.7931 47.3535 29.7834 47.6171 29.7449C47.9785 29.687 49.9023 28.8295 49.9804 26.7677C50.0976 24.1175 47.5488 21.2269 43.0273 21.2557ZM9.51166 32.4039C8.07611 33.9552 6.05463 34.543 5.19526 34.0419C4.26752 33.512 4.62875 31.2284 6.39643 29.5807C7.47065 28.5786 8.86713 27.6536 9.7851 27.0852C9.99018 26.9599 10.3027 26.7769 10.6738 26.5552C10.7324 26.5168 10.7714 26.4974 10.7714 26.4974C10.8398 26.4589 10.9179 26.4107 10.996 26.3625C11.6503 28.7135 11.0253 30.7755 9.51166 32.4039ZM20.0097 25.3604C19.5117 26.5648 18.457 29.6578 17.8222 29.4844C17.2752 29.3398 16.9433 26.9984 17.7147 24.6859C18.1053 23.52 18.9354 22.1325 19.4237 21.5929C20.2148 20.7257 21.0741 20.4366 21.289 20.7931C21.5429 21.2557 20.3222 24.6089 20.0097 25.3604ZM28.6718 29.4458C28.457 29.5519 28.2617 29.6289 28.1738 29.5712C28.1054 29.5326 28.2616 29.3881 28.2616 29.3881C28.2616 29.3881 29.3455 28.2415 29.7752 27.7116C30.0194 27.4033 30.3123 27.0468 30.6248 26.642V26.7576C30.6249 28.145 29.2773 29.07 28.6718 29.4458ZM35.3514 27.9427C35.1952 27.8271 35.2148 27.4706 35.742 26.3529C35.9472 25.9096 36.4159 25.1677 37.2264 24.4643C37.3241 24.7534 37.3828 25.0327 37.3729 25.293C37.3632 27.0273 36.1132 27.6729 35.3514 27.9427Z" fill="#CF649A"/>
</g>
<defs>
<clipPath id="clip0_4_12">
<rect width="50" height="37" fill="white"/>
</clipPath>
</defs>
</svg>
